<?xml version="1.0" encoding="utf-8" standalone="no"?>
<!DOCTYPE svg PUBLIC "-//W3C//DTD SVG 1.1//EN"
  "http://www.w3.org/Graphics/SVG/1.1/DTD/svg11.dtd">
<svg xmlns:xlink="http://www.w3.org/1999/xlink" width="576pt" height="302.4pt" viewBox="0 0 576 302.4" xmlns="http://www.w3.org/2000/svg" version="1.1">
 <metadata>
  <rdf:RDF xmlns:dc="http://purl.org/dc/elements/1.1/" xmlns:cc="http://creativecommons.org/ns#" xmlns:rdf="http://www.w3.org/1999/02/22-rdf-syntax-ns#">
   <cc:Work>
    <dc:type rdf:resource="http://purl.org/dc/dcmitype/StillImage"/>
    <dc:date>2026-08-23T08:29:47.458623</dc:date>
    <dc:format>image/svg+xml</dc:format>
    <dc:creator>
     <cc:Agent>
      <dc:title>Matplotlib v3.11.1, https://matplotlib.org/</dc:title>
     </cc:Agent>
    </dc:creator>
   </cc:Work>
  </rdf:RDF>
 </metadata>
 <defs>
  <style type="text/css">*{stroke-linejoin: round; stroke-linecap: butt}</style>
 </defs>
 <g id="figure_1">
  <g id="patch_1">
   <path d="M 0 302.4 
L 576 302.4 
L 576 0 
L 0 0 
z
" style="fill: #05070b"/>
  </g>
  <g id="axes_1">
   <g id="patch_2">
    <path d="M 51.88 257.52 
L 556.92 257.52 
L 556.92 33.24 
L 51.88 33.24 
z
" style="fill: #05070b"/>
   </g>
   <g id="matplotlib.axis_1">
    <g id="xtick_1">
     <g id="line2d_1">
      <path d="M 51.88 257.52 
L 51.88 33.24 
" clip-path="url(#pd794be5164)" style="fill: none; stroke: #1e2836; stroke-width: 0.6; stroke-linecap: square"/>
     </g>
     <g id="line2d_2">
      <defs>
       <path id="mde1f3561ae" d="M 0 0 
L 0 3.5 
" style="stroke: #8a97a8; stroke-width: 0.8"/>
      </defs>
      <g>
       <use xlink:href="#mde1f3561ae" x="51.88" y="257.52" style="fill: #8a97a8; stroke: #8a97a8; stroke-width: 0.8"/>
      </g>
     </g>
     <g id="text_1">
      <text style="font-size: 11px; font-family: 'DejaVu Sans'; text-anchor: middle; fill: #8a97a8" x="51.88" y="272.877422" transform="rotate(-0 51.88 272.877422)">0</text>
     </g>
    </g>
    <g id="xtick_2">
     <g id="line2d_3">
      <path d="M 107.995556 257.52 
L 107.995556 33.24 
" clip-path="url(#pd794be5164)" style="fill: none; stroke: #1e2836; stroke-width: 0.6; stroke-linecap: square"/>
     </g>
     <g id="line2d_4">
      <g>
       <use xlink:href="#mde1f3561ae" x="107.995556" y="257.52" style="fill: #8a97a8; stroke: #8a97a8; stroke-width: 0.8"/>
      </g>
     </g>
     <g id="text_2">
      <text style="font-size: 11px; font-family: 'DejaVu Sans'; text-anchor: middle; fill: #8a97a8" x="107.995556" y="272.877422" transform="rotate(-0 107.995556 272.877422)">10</text>
     </g>
    </g>
    <g id="xtick_3">
     <g id="line2d_5">
      <path d="M 164.111111 257.52 
L 164.111111 33.24 
" clip-path="url(#pd794be5164)" style="fill: none; stroke: #1e2836; stroke-width: 0.6; stroke-linecap: square"/>
     </g>
     <g id="line2d_6">
      <g>
       <use xlink:href="#mde1f3561ae" x="164.111111" y="257.52" style="fill: #8a97a8; stroke: #8a97a8; stroke-width: 0.8"/>
      </g>
     </g>
     <g id="text_3">
      <text style="font-size: 11px; font-family: 'DejaVu Sans'; text-anchor: middle; fill: #8a97a8" x="164.111111" y="272.877422" transform="rotate(-0 164.111111 272.877422)">20</text>
     </g>
    </g>
    <g id="xtick_4">
     <g id="line2d_7">
      <path d="M 220.226667 257.52 
L 220.226667 33.24 
" clip-path="url(#pd794be5164)" style="fill: none; stroke: #1e2836; stroke-width: 0.6; stroke-linecap: square"/>
     </g>
     <g id="line2d_8">
      <g>
       <use xlink:href="#mde1f3561ae" x="220.226667" y="257.52" style="fill: #8a97a8; stroke: #8a97a8; stroke-width: 0.8"/>
      </g>
     </g>
     <g id="text_4">
      <text style="font-size: 11px; font-family: 'DejaVu Sans'; text-anchor: middle; fill: #8a97a8" x="220.226667" y="272.877422" transform="rotate(-0 220.226667 272.877422)">30</text>
     </g>
    </g>
    <g id="xtick_5">
     <g id="line2d_9">
      <path d="M 276.342222 257.52 
L 276.342222 33.24 
" clip-path="url(#pd794be5164)" style="fill: none; stroke: #1e2836; stroke-width: 0.6; stroke-linecap: square"/>
     </g>
     <g id="line2d_10">
      <g>
       <use xlink:href="#mde1f3561ae" x="276.342222" y="257.52" style="fill: #8a97a8; stroke: #8a97a8; stroke-width: 0.8"/>
      </g>
     </g>
     <g id="text_5">
      <text style="font-size: 11px; font-family: 'DejaVu Sans'; text-anchor: middle; fill: #8a97a8" x="276.342222" y="272.877422" transform="rotate(-0 276.342222 272.877422)">40</text>
     </g>
    </g>
    <g id="xtick_6">
     <g id="line2d_11">
      <path d="M 332.457778 257.52 
L 332.457778 33.24 
" clip-path="url(#pd794be5164)" style="fill: none; stroke: #1e2836; stroke-width: 0.6; stroke-linecap: square"/>
     </g>
     <g id="line2d_12">
      <g>
       <use xlink:href="#mde1f3561ae" x="332.457778" y="257.52" style="fill: #8a97a8; stroke: #8a97a8; stroke-width: 0.8"/>
      </g>
     </g>
     <g id="text_6">
      <text style="font-size: 11px; font-family: 'DejaVu Sans'; text-anchor: middle; fill: #8a97a8" x="332.457778" y="272.877422" transform="rotate(-0 332.457778 272.877422)">50</text>
     </g>
    </g>
    <g id="xtick_7">
     <g id="line2d_13">
      <path d="M 388.573333 257.52 
L 388.573333 33.24 
" clip-path="url(#pd794be5164)" style="fill: none; stroke: #1e2836; stroke-width: 0.6; stroke-linecap: square"/>
     </g>
     <g id="line2d_14">
      <g>
       <use xlink:href="#mde1f3561ae" x="388.573333" y="257.52" style="fill: #8a97a8; stroke: #8a97a8; stroke-width: 0.8"/>
      </g>
     </g>
     <g id="text_7">
      <text style="font-size: 11px; font-family: 'DejaVu Sans'; text-anchor: middle; fill: #8a97a8" x="388.573333" y="272.877422" transform="rotate(-0 388.573333 272.877422)">60</text>
     </g>
    </g>
    <g id="xtick_8">
     <g id="line2d_15">
      <path d="M 444.688889 257.52 
L 444.688889 33.24 
" clip-path="url(#pd794be5164)" style="fill: none; stroke: #1e2836; stroke-width: 0.6; stroke-linecap: square"/>
     </g>
     <g id="line2d_16">
      <g>
       <use xlink:href="#mde1f3561ae" x="444.688889" y="257.52" style="fill: #8a97a8; stroke: #8a97a8; stroke-width: 0.8"/>
      </g>
     </g>
     <g id="text_8">
      <text style="font-size: 11px; font-family: 'DejaVu Sans'; text-anchor: middle; fill: #8a97a8" x="444.688889" y="272.877422" transform="rotate(-0 444.688889 272.877422)">70</text>
     </g>
    </g>
    <g id="xtick_9">
     <g id="line2d_17">
      <path d="M 500.804444 257.52 
L 500.804444 33.24 
" clip-path="url(#pd794be5164)" style="fill: none; stroke: #1e2836; stroke-width: 0.6; stroke-linecap: square"/>
     </g>
     <g id="line2d_18">
      <g>
       <use xlink:href="#mde1f3561ae" x="500.804444" y="257.52" style="fill: #8a97a8; stroke: #8a97a8; stroke-width: 0.8"/>
      </g>
     </g>
     <g id="text_9">
      <text style="font-size: 11px; font-family: 'DejaVu Sans'; text-anchor: middle; fill: #8a97a8" x="500.804444" y="272.877422" transform="rotate(-0 500.804444 272.877422)">80</text>
     </g>
    </g>
    <g id="xtick_10">
     <g id="line2d_19">
      <path d="M 556.92 257.52 
L 556.92 33.24 
" clip-path="url(#pd794be5164)" style="fill: none; stroke: #1e2836; stroke-width: 0.6; stroke-linecap: square"/>
     </g>
     <g id="line2d_20">
      <g>
       <use xlink:href="#mde1f3561ae" x="556.92" y="257.52" style="fill: #8a97a8; stroke: #8a97a8; stroke-width: 0.8"/>
      </g>
     </g>
     <g id="text_10">
      <text style="font-size: 11px; font-family: 'DejaVu Sans'; text-anchor: middle; fill: #8a97a8" x="556.92" y="272.877422" transform="rotate(-0 556.92 272.877422)">90</text>
     </g>
    </g>
    <g id="text_11">
     <text style="font-size: 11px; font-family: 'DejaVu Sans'; text-anchor: middle; fill: #8a97a8" x="304.4" y="287.878281" transform="rotate(-0 304.4 287.878281)">Days before the exam the form was taken</text>
    </g>
   </g>
   <g id="matplotlib.axis_2">
    <g id="ytick_1">
     <g id="line2d_21">
      <path d="M 51.88 257.52 
L 556.92 257.52 
" clip-path="url(#pd794be5164)" style="fill: none; stroke: #1e2836; stroke-width: 0.6; stroke-linecap: square"/>
     </g>
     <g id="line2d_22">
      <defs>
       <path id="m20a01527cb" d="M 0 0 
L -3.5 0 
" style="stroke: #8a97a8; stroke-width: 0.8"/>
      </defs>
      <g>
       <use xlink:href="#m20a01527cb" x="51.88" y="257.52" style="fill: #8a97a8; stroke: #8a97a8; stroke-width: 0.8"/>
      </g>
     </g>
     <g id="text_12">
      <text style="font-size: 11px; font-family: 'DejaVu Sans'; text-anchor: end; fill: #8a97a8" x="44.88" y="261.698711" transform="rotate(-0 44.88 261.698711)">0.0</text>
     </g>
    </g>
    <g id="ytick_2">
     <g id="line2d_23">
      <path d="M 51.88 214.8 
L 556.92 214.8 
" clip-path="url(#pd794be5164)" style="fill: none; stroke: #1e2836; stroke-width: 0.6; stroke-linecap: square"/>
     </g>
     <g id="line2d_24">
      <g>
       <use xlink:href="#m20a01527cb" x="51.88" y="214.8" style="fill: #8a97a8; stroke: #8a97a8; stroke-width: 0.8"/>
      </g>
     </g>
     <g id="text_13">
      <text style="font-size: 11px; font-family: 'DejaVu Sans'; text-anchor: end; fill: #8a97a8" x="44.88" y="218.978711" transform="rotate(-0 44.88 218.978711)">0.2</text>
     </g>
    </g>
    <g id="ytick_3">
     <g id="line2d_25">
      <path d="M 51.88 172.08 
L 556.92 172.08 
" clip-path="url(#pd794be5164)" style="fill: none; stroke: #1e2836; stroke-width: 0.6; stroke-linecap: square"/>
     </g>
     <g id="line2d_26">
      <g>
       <use xlink:href="#m20a01527cb" x="51.88" y="172.08" style="fill: #8a97a8; stroke: #8a97a8; stroke-width: 0.8"/>
      </g>
     </g>
     <g id="text_14">
      <text style="font-size: 11px; font-family: 'DejaVu Sans'; text-anchor: end; fill: #8a97a8" x="44.88" y="176.258711" transform="rotate(-0 44.88 176.258711)">0.4</text>
     </g>
    </g>
    <g id="ytick_4">
     <g id="line2d_27">
      <path d="M 51.88 129.36 
L 556.92 129.36 
" clip-path="url(#pd794be5164)" style="fill: none; stroke: #1e2836; stroke-width: 0.6; stroke-linecap: square"/>
     </g>
     <g id="line2d_28">
      <g>
       <use xlink:href="#m20a01527cb" x="51.88" y="129.36" style="fill: #8a97a8; stroke: #8a97a8; stroke-width: 0.8"/>
      </g>
     </g>
     <g id="text_15">
      <text style="font-size: 11px; font-family: 'DejaVu Sans'; text-anchor: end; fill: #8a97a8" x="44.88" y="133.538711" transform="rotate(-0 44.88 133.538711)">0.6</text>
     </g>
    </g>
    <g id="ytick_5">
     <g id="line2d_29">
      <path d="M 51.88 86.64 
L 556.92 86.64 
" clip-path="url(#pd794be5164)" style="fill: none; stroke: #1e2836; stroke-width: 0.6; stroke-linecap: square"/>
     </g>
     <g id="line2d_30">
      <g>
       <use xlink:href="#m20a01527cb" x="51.88" y="86.64" style="fill: #8a97a8; stroke: #8a97a8; stroke-width: 0.8"/>
      </g>
     </g>
     <g id="text_16">
      <text style="font-size: 11px; font-family: 'DejaVu Sans'; text-anchor: end; fill: #8a97a8" x="44.88" y="90.818711" transform="rotate(-0 44.88 90.818711)">0.8</text>
     </g>
    </g>
    <g id="ytick_6">
     <g id="line2d_31">
      <path d="M 51.88 43.92 
L 556.92 43.92 
" clip-path="url(#pd794be5164)" style="fill: none; stroke: #1e2836; stroke-width: 0.6; stroke-linecap: square"/>
     </g>
     <g id="line2d_32">
      <g>
       <use xlink:href="#m20a01527cb" x="51.88" y="43.92" style="fill: #8a97a8; stroke: #8a97a8; stroke-width: 0.8"/>
      </g>
     </g>
     <g id="text_17">
      <text style="font-size: 11px; font-family: 'DejaVu Sans'; text-anchor: end; fill: #8a97a8" x="44.88" y="48.098711" transform="rotate(-0 44.88 48.098711)">1.0</text>
     </g>
    </g>
    <g id="text_18">
     <text style="font-size: 11px; font-family: 'DejaVu Sans'; text-anchor: middle; fill: #8a97a8" x="20.743984" y="145.38" transform="rotate(-90 20.743984 145.38)">Weight in the anchor (relative to a form taken today)</text>
    </g>
   </g>
   <g id="patch_3">
    <path d="M 51.88 257.52 
L 51.88 33.24 
" style="fill: none; stroke: #1e2836; stroke-width: 0.8; stroke-linejoin: miter; stroke-linecap: square"/>
   </g>
   <g id="patch_4">
    <path d="M 51.88 257.52 
L 556.92 257.52 
" style="fill: none; stroke: #1e2836; stroke-width: 0.8; stroke-linejoin: miter; stroke-linecap: square"/>
   </g>
   <g id="line2d_33">
    <path d="M 51.88 43.92 
L 59.474586 53.341967 
L 67.069173 62.348327 
L 74.663759 70.957415 
L 82.258346 79.186752 
L 89.852932 87.053091 
L 97.447519 94.572443 
L 105.042105 101.760113 
L 112.636692 108.630734 
L 120.231278 115.198288 
L 127.825865 121.476146 
L 135.420451 127.477086 
L 143.015038 133.213322 
L 150.609624 138.696531 
L 158.204211 143.937873 
L 167.064561 149.761288 
L 175.924912 155.286133 
L 184.785263 160.527717 
L 193.645614 165.500561 
L 202.505965 170.218446 
L 211.366316 174.694442 
L 220.226667 178.940951 
L 230.352782 183.528166 
L 240.478897 187.847593 
L 250.605013 191.914864 
L 260.731128 195.7447 
L 270.857243 199.350962 
L 282.249123 203.156985 
L 293.641003 206.713978 
L 305.032882 210.038237 
L 316.424762 213.144987 
L 329.082406 216.359109 
L 341.74005 219.340428 
L 354.397694 222.105809 
L 368.321103 224.916949 
L 382.244511 227.504945 
L 397.433684 230.094492 
L 412.622857 232.460626 
L 429.077794 234.794137 
L 445.532732 236.910354 
L 463.253434 238.969512 
L 482.2399 240.948007 
L 502.49213 242.82638 
L 524.010125 244.589436 
L 546.793885 246.226182 
L 556.92 246.885482 
L 556.92 246.885482 
" clip-path="url(#pd794be5164)" style="fill: none; stroke: #f0b429; stroke-width: 2.4; stroke-linecap: square"/>
   </g>
   <g id="text_19">
    <text style="font-size: 9.5px; font-family: 'DejaVu Sans'; text-anchor: start; fill: #eaf0f8" x="99.160889" y="80.372389" transform="rotate(-0 99.160889 80.372389)">1 wk: 79%</text>
   </g>
   <g id="text_20">
    <text style="font-size: 9.5px; font-family: 'DejaVu Sans'; text-anchor: start; fill: #eaf0f8" x="177.722667" y="143.449379" transform="rotate(-0 177.722667 143.449379)">3 wks: 50%</text>
   </g>
   <g id="text_21">
    <text style="font-size: 9.5px; font-family: 'DejaVu Sans'; text-anchor: start; fill: #eaf0f8" x="295.565333" y="196.846889" transform="rotate(-0 295.565333 196.846889)">6 wks: 25%</text>
   </g>
   <g id="text_22">
    <text style="font-size: 9.5px; font-family: 'DejaVu Sans'; text-anchor: start; fill: #eaf0f8" x="413.408" y="223.363307" transform="rotate(-0 413.408 223.363307)">9 wks: 12%</text>
   </g>
   <g id="text_23">
    <text style="font-size: 12px; font-family: 'DejaVu Sans'; text-anchor: start; fill: #eaf0f8" x="51.88" y="21.24" transform="rotate(-0 51.88 21.24)">How much each practice form counts: half-life about three weeks</text>
   </g>
   <g id="line2d_34">
    <defs>
     <path id="m42d684b95a" d="M 0 3.5 
C 0.928211 3.5 1.81853 3.131218 2.474874 2.474874 
C 3.131218 1.81853 3.5 0.928211 3.5 0 
C 3.5 -0.928211 3.131218 -1.81853 2.474874 -2.474874 
C 1.81853 -3.131218 0.928211 -3.5 0 -3.5 
C -0.928211 -3.5 -1.81853 -3.131218 -2.474874 -2.474874 
C -3.131218 -1.81853 -3.5 -0.928211 -3.5 0 
C -3.5 0.928211 -3.131218 1.81853 -2.474874 2.474874 
C -1.81853 3.131218 -0.928211 3.5 0 3.5 
z
" style="stroke: #5b9dff"/>
    </defs>
    <g clip-path="url(#pd794be5164)">
     <use xlink:href="#m42d684b95a" x="91.160889" y="88.372389" style="fill: #5b9dff; stroke: #5b9dff"/>
    </g>
   </g>
   <g id="line2d_35">
    <g clip-path="url(#pd794be5164)">
     <use xlink:href="#m42d684b95a" x="169.722667" y="151.449379" style="fill: #5b9dff; stroke: #5b9dff"/>
    </g>
   </g>
   <g id="line2d_36">
    <g clip-path="url(#pd794be5164)">
     <use xlink:href="#m42d684b95a" x="287.565333" y="204.846889" style="fill: #5b9dff; stroke: #5b9dff"/>
    </g>
   </g>
   <g id="line2d_37">
    <g clip-path="url(#pd794be5164)">
     <use xlink:href="#m42d684b95a" x="405.408" y="231.363307" style="fill: #5b9dff; stroke: #5b9dff"/>
    </g>
   </g>
  </g>
 </g>
 <defs>
  <clipPath id="pd794be5164">
   <rect x="51.88" y="33.24" width="505.04" height="224.28"/>
  </clipPath>
 </defs>
</svg>
